<svg width="38" height="38" viewBox="0 0 38 38" fill="none" xmlns="http://www.w3.org/2000/svg">
<path d="M26.2826 9.215C25.2003 7.9794 24.6038 6.3926 24.6043 4.75H19.7118V24.3833C19.674 25.4458 19.2255 26.4521 18.4606 27.1905C17.6957 27.9288 16.6741 28.3415 15.6109 28.3417C13.3626 28.3417 11.4943 26.505 11.4943 24.225C11.4943 21.5017 14.1226 19.4592 16.8301 20.2983V15.295C11.3676 14.5667 6.58594 18.81 6.58594 24.225C6.58594 29.4975 10.9559 33.25 15.5951 33.25C20.5668 33.25 24.6043 29.2125 24.6043 24.225V14.2658C26.5882 15.6906 28.9701 16.455 31.4126 16.4508V11.5583C31.4126 11.5583 28.4359 11.7008 26.2826 9.215Z" fill="#3BADE2"/>
</svg>
