<svg width="36" height="36" viewBox="0 0 36 36" fill="none" xmlns="http://www.w3.org/2000/svg">
<path d="M19.5429 3C21.2304 3.0045 22.0869 3.0135 22.8264 3.0345L23.1174 3.045C23.4534 3.057 23.7849 3.072 24.1854 3.09C25.7814 3.165 26.8704 3.417 27.8259 3.7875C28.8159 4.1685 29.6499 4.6845 30.4839 5.517C31.2469 6.2666 31.8371 7.17371 32.2134 8.175C32.5839 9.1305 32.8359 10.2195 32.9109 11.817C32.9289 12.216 32.9439 12.5475 32.9559 12.885L32.9649 13.176C32.9874 13.914 32.9964 14.7705 32.9994 16.458L33.0009 17.577V19.542C33.0045 20.6361 32.993 21.7302 32.9664 22.824L32.9574 23.115C32.9454 23.4525 32.9304 23.784 32.9124 24.183C32.8374 25.7805 32.5824 26.868 32.2134 27.825C31.8371 28.8263 31.2469 29.7334 30.4839 30.483C29.7343 31.246 28.8271 31.8363 27.8259 32.2125C26.8704 32.583 25.7814 32.835 24.1854 32.91L23.1174 32.955L22.8264 32.964C22.0869 32.985 21.2304 32.9955 19.5429 32.9985L18.4239 33H16.4604C15.3657 33.0039 14.2711 32.9924 13.1769 32.9655L12.8859 32.9565C12.5298 32.943 12.1738 32.9275 11.8179 32.91C10.2219 32.835 9.13285 32.583 8.17585 32.2125C7.1751 31.8361 6.26852 31.2459 5.51935 30.483C4.75577 29.7336 4.16502 28.8264 3.78835 27.825C3.41785 26.8695 3.16585 25.7805 3.09085 24.183L3.04585 23.115L3.03835 22.824C3.0107 21.7302 2.9982 20.6361 3.00085 19.542V16.458C2.9967 15.3639 3.0077 14.2698 3.03385 13.176L3.04435 12.885C3.05635 12.5475 3.07135 12.216 3.08935 11.817C3.16435 10.2195 3.41635 9.132 3.78685 8.175C4.16439 7.1733 4.75619 6.26615 5.52085 5.517C6.26958 4.75432 7.17563 4.16411 8.17585 3.7875C9.13285 3.417 10.2204 3.165 11.8179 3.09C12.2169 3.072 12.5499 3.057 12.8859 3.045L13.1769 3.036C14.2706 3.00935 15.3647 2.99785 16.4589 3.0015L19.5429 3ZM18.0009 10.5C16.0117 10.5 14.1041 11.2902 12.6976 12.6967C11.291 14.1032 10.5009 16.0109 10.5009 18C10.5009 19.9891 11.291 21.8968 12.6976 23.3033C14.1041 24.7098 16.0117 25.5 18.0009 25.5C19.99 25.5 21.8976 24.7098 23.3042 23.3033C24.7107 21.8968 25.5009 19.9891 25.5009 18C25.5009 16.0109 24.7107 14.1032 23.3042 12.6967C21.8976 11.2902 19.99 10.5 18.0009 10.5ZM18.0009 13.5C18.5918 13.4999 19.177 13.6162 19.723 13.8423C20.269 14.0683 20.7651 14.3997 21.1831 14.8175C21.601 15.2353 21.9325 15.7313 22.1588 16.2772C22.385 16.8232 22.5015 17.4083 22.5016 17.9993C22.5017 18.5902 22.3854 19.1754 22.1593 19.7214C21.9333 20.2674 21.6019 20.7635 21.1841 21.1814C20.7663 21.5994 20.2703 21.9309 19.7244 22.1572C19.1784 22.3834 18.5933 22.4999 18.0024 22.5C16.8089 22.5 15.6643 22.0259 14.8204 21.182C13.9765 20.3381 13.5024 19.1935 13.5024 18C13.5024 16.8065 13.9765 15.6619 14.8204 14.818C15.6643 13.9741 16.8089 13.5 18.0024 13.5M25.8774 8.25C25.3801 8.25 24.9032 8.44754 24.5515 8.79917C24.1999 9.15081 24.0024 9.62772 24.0024 10.125C24.0024 10.6223 24.1999 11.0992 24.5515 11.4508C24.9032 11.8025 25.3801 12 25.8774 12C26.3746 12 26.8515 11.8025 27.2032 11.4508C27.5548 11.0992 27.7524 10.6223 27.7524 10.125C27.7524 9.62772 27.5548 9.15081 27.2032 8.79917C26.8515 8.44754 26.3746 8.25 25.8774 8.25Z" fill="#3BADE2"/>
</svg>
