<svg width="34" height="34" viewBox="0 0 34 34" fill="none" xmlns="http://www.w3.org/2000/svg">
<path d="M17.0007 2.83301C24.8249 2.83301 31.1673 9.17542 31.1673 16.9997C31.1673 24.8239 24.8249 31.1663 17.0007 31.1663C14.4971 31.1707 12.0375 30.5081 9.87484 29.2468L2.83967 31.1663L4.75501 24.1283C3.4927 21.965 2.82962 19.5044 2.83401 16.9997C2.83401 9.17542 9.17642 2.83301 17.0007 2.83301ZM12.1727 10.3413L11.8893 10.3527C11.7062 10.3653 11.5272 10.4134 11.3623 10.4943C11.2087 10.5815 11.0685 10.6903 10.9458 10.8173C10.7758 10.9774 10.6795 11.1163 10.5761 11.2508C10.0521 11.9321 9.76997 12.7685 9.77426 13.628C9.77709 14.3222 9.95842 14.9979 10.2418 15.6298C10.8212 16.9076 11.7746 18.2605 13.0326 19.5143C13.3358 19.816 13.6333 20.1192 13.9534 20.4011C15.5166 21.7772 17.3793 22.7697 19.3934 23.2996L20.1981 23.4228C20.4602 23.437 20.7223 23.4172 20.9858 23.4044C21.3983 23.3827 21.801 23.271 22.1658 23.0772C22.3512 22.9813 22.5322 22.8773 22.7084 22.7655C22.7084 22.7655 22.7684 22.7249 22.8855 22.638C23.0768 22.4963 23.1943 22.3958 23.353 22.23C23.472 22.1072 23.5712 21.9646 23.6505 21.8022C23.761 21.5713 23.8715 21.1307 23.9168 20.7638C23.9508 20.4833 23.9409 20.3303 23.9367 20.2353C23.931 20.0838 23.8049 19.9265 23.6675 19.8599L22.843 19.4902C22.843 19.4902 21.6105 18.9533 20.8568 18.6104C20.7779 18.5761 20.6935 18.5564 20.6075 18.5523C20.5106 18.5422 20.4126 18.553 20.3202 18.5841C20.2278 18.6151 20.1432 18.6656 20.072 18.7323C20.0649 18.7294 19.97 18.8102 18.9458 20.0512C18.887 20.1302 18.806 20.1899 18.7131 20.2227C18.6203 20.2555 18.5198 20.2599 18.4244 20.2353C18.3321 20.2107 18.2417 20.1795 18.1538 20.1418C17.9782 20.0682 17.9173 20.0398 17.7968 19.9888C16.9835 19.6345 16.2306 19.1551 15.5656 18.5679C15.3871 18.4121 15.2213 18.2421 15.0513 18.0778C14.494 17.544 14.0083 16.9402 13.6063 16.2814L13.5228 16.1468C13.4636 16.0559 13.4151 15.9584 13.3783 15.8564C13.3244 15.6482 13.4647 15.481 13.4647 15.481C13.4647 15.481 13.8089 15.1042 13.969 14.9002C14.1248 14.7018 14.2566 14.5092 14.3416 14.3718C14.5088 14.1026 14.5612 13.8263 14.4733 13.6124C14.0767 12.6434 13.6668 11.6796 13.2437 10.721C13.1601 10.5312 12.9122 10.3952 12.6869 10.3683C12.6104 10.3588 12.5339 10.3513 12.4574 10.3456C12.2672 10.3347 12.0765 10.3366 11.8865 10.3513L12.1727 10.3413Z" fill="#3BADE2"/>
</svg>
